<svg xmlns="http://www.w3.org/2000/svg" viewBox="0 0 120 100" width="120" height="100">
  <!-- Tab (darker shade) -->
  <path d="M10 30 L10 22 C10 18 13 15 17 15 L42 15 L50 25 L50 30 Z" fill="currentColor" opacity="0.7"/>
  <!-- Body (main color) -->
  <rect x="6" y="28" width="108" height="62" rx="8" fill="currentColor" opacity="0.5"/>
  <!-- Body border/highlight -->
  <rect x="6" y="28" width="108" height="62" rx="8" fill="none" stroke="currentColor" stroke-width="1.5" opacity="0.15"/>
  <!-- Document icon inside -->
  <g transform="translate(42, 42)">
    <path d="M8 2 L26 2 L34 10 L34 38 C34 40 32 42 30 42 L8 42 C6 42 4 40 4 38 L4 6 C4 4 6 2 8 2 Z" fill="white" opacity="0.9"/>
    <path d="M26 2 L26 10 L34 10 Z" fill="white" opacity="0.6"/>
    <line x1="10" y1="20" x2="28" y2="20" stroke="currentColor" stroke-width="2" opacity="0.25"/>
    <line x1="10" y1="27" x2="28" y2="27" stroke="currentColor" stroke-width="2" opacity="0.25"/>
    <line x1="10" y1="34" x2="20" y2="34" stroke="currentColor" stroke-width="2" opacity="0.25"/>
  </g>
</svg>